<svg width="20" height="20" viewBox="0 0 20 20" fill="none" xmlns="http://www.w3.org/2000/svg">
<g clip-path="url(#clip0_22_1407)">
<path d="M11.5 19.8676V12.9412H13.8088L14.25 10.0588H11.5V8.20586C11.5 7.41174 11.8824 6.64704 13.1176 6.64704H14.3676V4.20586C13.6127 4.0784 12.8726 4.01468 12.1471 4.01468C9.88235 4.01468 8.39706 5.39704 8.39706 7.88233V10.0588H5.88235V12.9412H8.39706V19.8676C3.66176 19.1323 0.0294113 15.0147 0.0294113 10.0588C0.0294113 4.58821 4.47059 0.132324 9.95588 0.132324C15.4265 0.132324 19.8824 4.58821 19.8824 10.0588C19.8824 15.0147 16.25 19.1323 11.5 19.8676Z" fill="#4676ED"/>
<path d="M11.5 12.9411V19.8676C11 19.946 10.4853 19.9852 9.95588 19.9852C9.42647 19.9852 8.90687 19.946 8.39706 19.8676V12.9411H5.88235V10.0588H8.39706V7.8823C8.39706 5.397 9.88235 4.01465 12.1471 4.01465C12.8725 4.01465 13.6128 4.07837 14.3676 4.20583V6.647H13.1176C11.8824 6.647 11.5 7.41171 11.5 8.20582V10.0588H14.25L13.8088 12.9411H11.5Z" fill="white"/>
</g>
<defs>
<clipPath id="clip0_22_1407">
<rect width="20" height="20" fill="white"/>
</clipPath>
</defs>
</svg>
