<svg width="56" height="32" viewBox="0 0 56 32" fill="none" xmlns="http://www.w3.org/2000/svg">
<g clip-path="url(#clip0_182_6142)">
<path d="M50 0.915527H6C2.68629 0.915527 0 3.52042 0 6.73371V26.1276C0 29.3409 2.68629 31.9458 6 31.9458H50C53.3137 31.9458 56 29.3409 56 26.1276V6.73371C56 3.52042 53.3137 0.915527 50 0.915527Z" fill="#111827"/>
<mask id="mask0_182_6142" style="mask-type:luminance" maskUnits="userSpaceOnUse" x="0" y="0" width="56" height="32">
<path d="M56 0.915527H0V31.9458H56V0.915527Z" fill="white"/>
</mask>
<g mask="url(#mask0_182_6142)">
<mask id="mask1_182_6142" style="mask-type:luminance" maskUnits="userSpaceOnUse" x="4" y="-7" width="48" height="47">
<path d="M51.7999 -6.3457H4.19995V39.8119H51.7999V-6.3457Z" fill="white"/>
</mask>
<g mask="url(#mask1_182_6142)">
<path d="M12.7314 12.5208C12.5756 12.2176 12.3292 11.9678 12.0232 11.78C11.7041 11.5904 11.3273 11.4577 10.8967 11.379C10.4586 11.3021 9.95243 11.2672 9.36604 11.2617L6.6588 11.2636C6.3774 11.2672 6.10168 11.4797 6.03558 11.7434L4.21407 19.4368C4.14797 19.6968 4.32455 19.9147 4.60594 19.9147H5.90243C6.18383 19.9147 6.46239 19.7032 6.52471 19.4368L6.96947 17.5688C7.02895 17.3088 7.30657 17.0917 7.5908 17.0917H7.9619C9.54734 17.0899 10.7749 16.7759 11.6569 16.1468C12.5435 15.5168 12.9807 14.6845 12.9807 13.6535C12.9798 13.202 12.9033 12.8229 12.7314 12.5208ZM9.93544 15.0342C9.54356 15.3126 8.99871 15.4518 8.29617 15.4518H7.9789C7.69656 15.4518 7.52376 15.2357 7.58513 14.972L7.97512 13.3384C8.02989 13.0766 8.31411 12.8596 8.59268 12.8614L9.0176 12.8586C9.51334 12.8586 9.892 12.942 10.1451 13.1032C10.3953 13.2625 10.5209 13.5161 10.519 13.8522C10.5266 14.3631 10.3254 14.7559 9.93544 15.0342Z" fill="white"/>
<path d="M49.6905 11.8641L49.6093 11.888L49.5007 11.9026L49.3675 11.8824L49.2996 11.8183L49.2684 11.7176L49.2665 11.5665V11.0071H49.6999V10.834H49.2665V10.4851H49.0522V10.834H48.9067V11.0071H49.0522V11.6581L49.1522 11.9804L49.4469 12.083L49.5706 12.0729L49.7018 12.0482V11.8641H49.6905Z" fill="white"/>
<path d="M51.7008 10.923L51.3911 10.7993L51.1626 10.8442L50.9303 10.9962L50.7953 10.8506L50.5762 10.8003L50.3656 10.8451L50.1664 10.9697V10.8341H49.9558V12.0565H50.1654V11.1437L50.342 11.0374L50.5177 10.9953L50.6612 11.02L50.732 11.0905L50.7632 11.2078L50.7736 11.3588V12.0575H50.9841V11.2754L50.9803 11.2105L50.9766 11.1509L51.156 11.0402L51.3335 10.9971L51.4723 11.0219L51.5479 11.0924L51.5743 11.2105L51.5885 11.3597V12.0584H51.8V11.2645L51.7008 10.923Z" fill="white"/>
<path d="M18.9835 13.6203C18.4944 13.353 17.722 13.2192 16.6663 13.2192C16.1441 13.2192 15.6238 13.2586 15.0978 13.3373C14.7097 13.395 14.672 13.4061 14.4331 13.4564C13.9402 13.5608 13.8627 14.0379 13.8627 14.0379L13.7041 14.6706C13.6144 15.0744 13.8542 15.0589 13.9543 15.0249C14.1696 14.9627 14.2895 14.8986 14.7296 14.8033C15.1498 14.7108 15.5926 14.6413 15.9439 14.6459C16.4623 14.6459 16.8589 14.699 17.1233 14.807C17.3839 14.9169 17.5142 15.1055 17.5142 15.3784L17.4916 15.556L17.3046 15.6677C16.569 15.7126 16.0374 15.7786 15.3924 15.8692C14.7617 15.9544 14.2083 16.1036 13.7485 16.3078C13.2546 16.5183 12.8882 16.8013 12.6323 17.1612C12.3849 17.5228 12.2612 17.9614 12.2612 18.4761C12.2612 18.9604 12.4406 19.3606 12.7891 19.6701C13.1394 19.9741 13.6021 20.1224 14.1554 20.1224C14.5058 20.1206 14.7768 20.094 14.9694 20.0492L15.5974 19.8395L16.129 19.5538L16.6181 19.2407L16.6247 19.2498L16.5756 19.4513L16.5728 19.4595V19.4614C16.5199 19.7067 16.6729 19.9082 16.9193 19.932L16.9241 19.9375H16.9467H17.941H18.128L18.145 19.9301C18.4037 19.9008 18.6464 19.6994 18.7031 19.4595L19.6483 15.4919L19.6974 15.1687L19.7201 14.8656C19.7238 14.3034 19.4736 13.8868 18.9835 13.6203ZM16.8929 18.0814L16.6908 18.3396L16.1809 18.5951C15.9411 18.6894 15.7135 18.737 15.5029 18.737C15.1838 18.737 14.9335 18.6922 14.7645 18.6006L14.5143 18.129C14.5143 17.8736 14.5747 17.6712 14.7041 17.5156L15.2536 17.1529C15.4888 17.076 15.7758 17.011 16.1082 16.9661C16.4047 16.9305 16.9902 16.8654 17.0667 16.8636L17.1564 17.0165C17.1384 17.1035 16.9722 17.7774 16.8929 18.0814Z" fill="white"/>
<path d="M42.5319 13.6261C42.0399 13.3587 41.2684 13.2241 40.2156 13.2241C39.6934 13.2241 39.1721 13.2635 38.6481 13.345C38.259 13.3999 38.2203 13.4119 37.9805 13.4613C37.4885 13.5648 37.412 14.0436 37.412 14.0436L37.2534 14.6755C37.1646 15.0792 37.3988 15.0609 37.5083 15.0298C37.7246 14.9675 37.8407 14.9062 38.277 14.8073C38.6953 14.7157 39.1419 14.648 39.4941 14.6498C40.0107 14.6498 40.4073 14.7039 40.6707 14.8119C40.9332 14.9218 41.0616 15.1122 41.0616 15.3824L41.0418 15.5591L40.8567 15.6735C40.1136 15.7165 39.581 15.7825 38.9427 15.8731C38.3138 15.9583 37.7586 16.1066 37.2977 16.3117C36.8058 16.5232 36.4347 16.8062 36.1816 17.167C35.9314 17.5286 35.8096 17.9663 35.8096 18.4764C35.8096 18.9644 35.9871 19.3645 36.3403 19.6722C36.6925 19.9753 37.1504 20.1273 37.7038 20.1273C38.0522 20.1236 38.3232 20.1017 38.5168 20.0531L39.1429 19.8462L39.6792 19.5605L40.1646 19.2437L40.1731 19.2538L40.1287 19.457L40.124 19.4607L40.1259 19.4643C40.0673 19.7097 40.2212 19.913 40.4705 19.935L40.4724 19.9396H40.4951C40.6584 19.9396 41.2231 19.9396 41.4922 19.9396H41.6754L41.6952 19.9332C41.9511 19.903 42.1929 19.7015 42.2467 19.4589L43.1948 15.4968L43.2448 15.1718L43.2722 14.8678C43.2731 14.3074 43.0257 13.8925 42.5319 13.6261ZM40.446 18.0872L40.2354 18.3482L39.7302 18.6018C39.4904 18.6952 39.2618 18.7437 39.055 18.7437C38.7255 18.7437 38.4819 18.698 38.3176 18.6064L38.0645 18.1366C38.0645 17.8802 38.1259 17.6798 38.2496 17.5213C38.3752 17.3721 38.5669 17.2493 38.8048 17.1596C39.0371 17.0827 39.3242 17.0205 39.6584 16.9737C39.9531 16.9381 40.5366 16.8712 40.6122 16.8703L40.7038 17.0232C40.6905 17.1102 40.5234 17.7814 40.446 18.0872Z" fill="white"/>
<path d="M36.2761 12.5491C36.1137 12.2441 35.87 11.9978 35.5622 11.8055C35.2468 11.6151 34.8729 11.4814 34.4357 11.4045C34.006 11.3303 33.4933 11.29 32.9107 11.2891L30.1997 11.2909C29.9173 11.2956 29.6463 11.5079 29.5812 11.7689L27.7578 19.4659C27.6917 19.7269 27.873 19.943 28.1487 19.943L29.4471 19.9412C29.7228 19.943 30.0052 19.7287 30.0703 19.4651L30.5094 17.5962C30.5736 17.3361 30.8522 17.1173 31.1326 17.1191H31.5037C33.091 17.1191 34.3214 16.8023 35.2072 16.1751C36.0825 15.5405 36.5254 14.7101 36.5254 13.6781C36.5207 13.2285 36.4404 12.8484 36.2761 12.5491ZM33.4801 15.0662C33.0892 15.3391 32.5434 15.4783 31.8446 15.4783H31.5217C31.2431 15.481 31.0627 15.2612 31.1251 14.9994L31.5179 13.3686C31.5755 13.1076 31.8569 12.8888 32.1373 12.8915L32.5575 12.8888C33.0561 12.8915 33.43 12.9712 33.685 13.1324C33.939 13.2935 34.0589 13.5462 34.0618 13.8814C34.0646 14.3923 33.8691 14.786 33.4801 15.0662Z" fill="white"/>
<path d="M47.393 11.8301C47.4525 11.5674 47.2825 11.354 47.004 11.3577H45.8425C45.6045 11.3577 45.3902 11.529 45.2854 11.7396L45.2212 11.8366L45.1626 12.0857L43.5394 19.2407L43.4865 19.4604L43.4884 19.4659C43.4346 19.7012 43.5838 19.8788 43.8142 19.9128L43.834 19.9392H45.0399C45.2759 19.9392 45.4978 19.7653 45.5989 19.5511L45.6612 19.4594L47.3968 11.8311L47.393 11.8301Z" fill="white"/>
<path d="M27.7937 13.3155C27.4868 13.3191 26.2394 13.3155 26.2394 13.3155C25.9599 13.3155 25.6011 13.5343 25.4235 13.7953C25.4235 13.7953 23.5671 16.8847 23.3867 17.1951L23.1714 17.1924L22.5935 13.8164C22.5293 13.5508 22.2432 13.3238 21.8872 13.3238L20.7258 13.3255C20.4463 13.3255 20.2744 13.5417 20.3377 13.8053C20.3377 13.8053 21.2196 18.6721 21.3962 19.8176C21.4783 20.4494 21.3858 20.5621 21.3858 20.5621L20.2376 22.5014C20.0676 22.7651 20.1592 22.9803 20.4378 22.9803L21.7805 22.9785C22.06 22.9785 22.4273 22.7651 22.5935 22.5005L27.7587 14.0287C27.7587 14.0287 28.2554 13.3054 27.7937 13.3155Z" fill="white"/>
</g>
</g>
</g>
<defs>
<clipPath id="clip0_182_6142">
<rect width="56" height="32" fill="white"/>
</clipPath>
</defs>
</svg>
