<svg width="20" height="20" viewBox="0 0 20 20" fill="none" xmlns="http://www.w3.org/2000/svg">
<g clip-path="url(#clip0_22_1430)">
<path d="M19.9706 10.0588C19.9706 15.5441 15.5294 19.9853 10.0441 19.9853C4.57353 19.9853 0.117645 15.5441 0.117645 10.0588C0.117645 4.58821 4.57353 0.132324 10.0441 0.132324C15.5294 0.132324 19.9706 4.58821 19.9706 10.0588Z" fill="#5A99EC"/>
<path d="M4 14.6028C4.20588 14.6224 4.41666 14.6323 4.63235 14.6323C5.86765 14.6323 7 14.2205 7.91176 13.4999C6.75 13.4852 5.77941 12.7205 5.44118 11.6764C5.59804 11.7058 5.76471 11.7205 5.94118 11.7205C6.17647 11.7205 6.40685 11.6911 6.63235 11.6323C5.42647 11.3823 4.51471 10.3234 4.51471 9.04402C4.51471 9.03421 4.51471 9.0244 4.51471 9.01461C4.86765 9.20578 5.27941 9.32343 5.70588 9.33814C5 8.86755 4.54412 8.05872 4.54412 7.14696C4.54412 6.66166 4.67647 6.22049 4.89706 5.82343C6.19118 7.41166 8.13235 8.47049 10.3235 8.57343C10.2843 8.38715 10.2647 8.18618 10.2647 7.97049C10.2647 6.51461 11.4412 5.33813 12.8971 5.33813C13.6618 5.33813 14.3382 5.66166 14.8235 6.17637C15.4265 6.05872 15.9853 5.83813 16.5 5.52931C16.2941 6.14696 15.8824 6.66166 15.3382 6.98519C15.8676 6.92637 16.3824 6.79402 16.8529 6.57343C16.5 7.10284 16.0441 7.57343 15.5294 7.94108C15.5393 8.05872 15.5441 8.17146 15.5441 8.27931C15.5441 11.7646 12.8971 15.7793 8.04412 15.7793C6.55882 15.7793 5.16176 15.3528 4 14.6028Z" fill="white"/>
</g>
<defs>
<clipPath id="clip0_22_1430">
<rect width="20" height="20" fill="white"/>
</clipPath>
</defs>
</svg>
