<svg width="56" height="32" viewBox="0 0 56 32" fill="none" xmlns="http://www.w3.org/2000/svg">
<g clip-path="url(#clip0_182_6652)">
<path d="M50 0.915527H6C2.68629 0.915527 0 3.52042 0 6.73371V26.1276C0 29.3409 2.68629 31.9458 6 31.9458H50C53.3137 31.9458 56 29.3409 56 26.1276V6.73371C56 3.52042 53.3137 0.915527 50 0.915527Z" fill="#111827"/>
<mask id="mask0_182_6652" style="mask-type:luminance" maskUnits="userSpaceOnUse" x="0" y="0" width="56" height="32">
<path d="M56 0.915527H0V31.9458H56V0.915527Z" fill="white"/>
</mask>
<g mask="url(#mask0_182_6652)">
<mask id="mask1_182_6652" style="mask-type:luminance" maskUnits="userSpaceOnUse" x="5" y="-6" width="46" height="45">
<path d="M50.4 -5.29053H5.59998V38.1519H50.4V-5.29053Z" fill="white"/>
</mask>
<g mask="url(#mask1_182_6652)">
<path d="M19.2681 8.14575V8.84899L19.269 8.84987H20.0005V8.14575H19.2681Z" fill="white"/>
<path d="M20.7374 7.43091H20.0005V8.14553H20.7374V7.43091Z" fill="white"/>
<path d="M18.6151 10.2595V9.55976H19.2689V8.84952L17.9314 8.84863V9.55976H17.2622V10.9277H17.9314L17.9305 10.2595H18.6151L18.6142 10.9286H17.9305V11.5916H17.2613V12.2659H16.5659V11.5924H17.2604V10.9286H16.5659V10.2901H15.8759V10.9286H16.5659L16.565 11.5916H15.4162V12.0785H14.7993V12.674H15.4893V13.3378H14.7993V12.674H14.0669V13.7171H13.376V14.3844H12.9172V15.0516H12.4151C11.8452 15.8697 10.4236 18.4199 9.99465 19.4568C8.44668 17.3663 7.2446 16.5379 6.29812 16.2401C5.79056 16.0913 5.1692 16.6307 6.02086 17.4784C7.96531 19.5567 8.58215 21.2775 9.1728 22.6489C9.48709 23.3723 10.8924 23.4853 11.175 22.7479C11.7711 21.1899 12.6444 19.4402 13.6686 18.003V17.2577H14.2231L14.224 16.5851H14.7993V15.8093H15.4947V15.0579H14.7993V14.3879H15.4947V15.0579H16.1739V14.3844H16.723V13.569H17.3344V13.0094H17.9305V11.5916L18.6151 11.5924L18.6142 10.9286H19.3836V10.2595H18.6151Z" fill="white"/>
<path d="M34.503 14.0632C34.1264 14.0632 33.8284 14.3522 33.8284 14.7156C33.8266 15.0897 34.1517 15.3541 34.5229 15.3541C34.8742 15.3541 35.1614 15.0651 35.1614 14.7156C35.1614 14.3522 34.8742 14.0632 34.503 14.0632Z" fill="white"/>
<path d="M25.4057 14.0632C25.0345 14.0632 24.7365 14.3522 24.7365 14.7156C24.7365 15.0897 25.0607 15.3541 25.431 15.3541C25.7823 15.3541 26.0695 15.0651 26.0695 14.7156C26.0695 14.3522 25.7823 14.0632 25.4057 14.0632Z" fill="white"/>
<path d="M20.7374 8.85327H20.0005V9.5679H20.7374V8.85327Z" fill="white"/>
<path d="M48.0364 20.7366V18.5288C48.0364 17.3807 47.3681 16.864 46.1787 16.864C45.3008 16.864 44.6262 17.2117 44.1945 17.9605H44.1683L44.0057 16.864C43.3925 16.9717 42.9328 17.1652 42.2925 17.2371V17.4779C42.6881 17.4779 43.0249 17.428 43.1234 17.8623C43.1857 18.1408 43.1857 18.986 43.1857 19.3249V20.8058C43.1857 21.6027 43.2462 21.8909 42.3124 21.954V22.1948C42.7964 22.1816 43.2724 22.1571 43.761 22.1458C44.2053 22.1571 44.665 22.1816 45.1148 22.1948V21.9548C44.1313 21.8953 44.2405 21.5327 44.2405 20.7349V18.8642C44.2405 17.9832 44.8619 17.2475 45.8364 17.2475C47.0204 17.2475 46.9834 18.4308 46.9834 19.2628V20.8067C46.9834 21.6036 47.0439 21.8918 46.1082 21.9548V22.1957C46.595 22.1825 47.0665 22.158 47.5532 22.1466C48.003 22.158 48.4636 22.1825 48.9116 22.1957V21.9548C47.9362 21.8935 48.0364 21.5301 48.0364 20.7366Z" fill="white"/>
<path d="M41.3407 16.9022C40.8855 16.9022 40.4674 17.1562 40.1323 17.4092C39.7069 17.0362 39.1235 16.8672 38.5482 16.8672C37.329 16.8672 36.21 17.5546 36.21 18.8341C36.21 19.6048 36.8178 20.2687 37.5394 20.4981V20.5218C37.0065 20.5935 36.4475 20.9806 36.4475 21.5604C36.4475 22.6446 37.5764 22.6227 38.4019 22.6446C39.2581 22.6945 40.6299 22.6341 40.6299 23.8164C40.6299 24.7929 39.6825 25.1555 38.8092 25.1555C37.9359 25.1555 36.8331 24.947 36.8331 23.8987C36.8331 23.5239 37.068 23.114 37.4762 23.0422C37.3299 22.91 37.1664 22.8233 36.9587 22.8233C36.4186 22.8233 36.0375 23.3321 36.0375 23.8269C36.0375 25.0836 37.6162 25.4313 38.6466 25.4313C40.0058 25.4313 41.4698 24.9365 41.4698 23.4057C41.4698 21.7872 40.1314 21.7382 38.8598 21.6436L38.0235 21.6059C37.7507 21.5823 37.0652 21.6304 37.0652 21.2075C37.0652 20.7153 38.0235 20.7153 38.401 20.7013C39.6816 20.6417 40.7898 20.231 40.7898 18.8078C40.7898 18.3709 40.638 17.9479 40.3409 17.623C40.4755 17.5161 40.6751 17.3953 40.853 17.3953C41.2341 17.3953 41.2766 17.8148 41.6577 17.8148C41.9006 17.8148 42.0713 17.6352 42.0713 17.4163C42.0713 17.0449 41.6577 16.8987 41.3407 16.9022ZM38.4615 20.4245C37.562 20.4245 37.2666 19.5304 37.2666 18.8052C37.2666 18.0442 37.5258 17.1422 38.4841 17.1422C39.4306 17.1422 39.7277 18.0337 39.7277 18.8052C39.7277 19.5873 39.4206 20.4245 38.4615 20.4245Z" fill="white"/>
<path d="M49.6557 17.779C49.7984 17.7562 49.9185 17.6766 49.9176 17.4979C49.9176 17.3201 49.8138 17.2246 49.5844 17.2246H49.187V18.2204H49.3189V17.779H49.5266L49.8129 18.2204H49.9646L49.6557 17.779ZM49.4832 17.6775H49.3162V17.3306H49.5456C49.672 17.3306 49.7867 17.363 49.7867 17.5014C49.7867 17.6713 49.635 17.6748 49.4832 17.6775Z" fill="white"/>
<path d="M49.5112 16.8645C49.0118 16.8645 48.6226 17.2402 48.6226 17.7254C48.6226 18.2062 49.0118 18.5863 49.5112 18.5863C50.0107 18.5863 50.3999 18.2088 50.3999 17.7254C50.3999 17.2402 50.0107 16.8645 49.5112 16.8645ZM49.5112 18.4654C49.0804 18.4654 48.758 18.1379 48.758 17.7254C48.758 17.3129 49.0823 16.9862 49.5112 16.9862C49.9375 16.9862 50.2572 17.312 50.2572 17.7254C50.2572 18.1352 49.9393 18.4636 49.5112 18.4654Z" fill="white"/>
<path d="M22.8968 16.863C22.0397 16.863 21.4165 17.3464 21.0932 18.083H21.067C21.0833 17.6468 21.0309 17.2124 20.9207 16.863C20.3725 16.983 19.8234 17.1993 19.2382 17.237V17.4761C19.6346 17.4761 19.9489 17.4279 20.0582 17.8623C20.1476 18.1391 20.1314 18.9981 20.1314 19.3231V20.804C20.1314 21.601 20.1991 21.8908 19.2634 21.9521V22.1947C19.7502 22.1798 20.2208 22.157 20.7067 22.1457C21.1772 22.157 21.664 22.1815 22.139 22.1947V21.9521C21.0941 21.9039 21.1925 21.6149 21.1925 20.7339V19.5403C21.1925 18.9842 21.1925 18.3939 21.4797 17.8982C21.6631 17.5952 22.0758 17.2956 22.447 17.2956C22.9329 17.2956 22.8236 17.9236 23.3456 17.9236C23.5813 17.9236 23.7791 17.7187 23.7791 17.4874C23.7791 17.0451 23.2824 16.863 22.8968 16.863Z" fill="white"/>
<path d="M18.7189 18.9377C18.8445 18.9377 19.0278 18.9876 19.0278 18.83C19.0278 17.526 17.8727 16.863 16.6544 16.863C15.0332 16.863 13.8519 18.224 13.8519 19.733C13.8519 21.2778 15.1217 22.3279 16.6643 22.3279C17.5999 22.3279 18.2954 22.0029 18.8806 21.3032L18.6187 21.0501C18.2475 21.5309 17.683 21.9434 17.0508 21.9434C15.7178 21.9434 15.0955 20.6656 15.0955 19.5175L15.1488 18.9377H18.7189ZM16.6652 17.1424C17.4491 17.1424 17.8727 17.6232 17.8727 18.3711C17.8727 18.6733 17.4645 18.612 17.2658 18.6129H15.212C15.3584 17.8281 15.735 17.1424 16.6652 17.1424Z" fill="white"/>
<path d="M35.1696 20.7366V16.864L33.2043 17.2371V17.4779C33.4536 17.4639 33.9756 17.4402 34.0596 17.7432C34.1129 17.9263 34.1129 18.8546 34.1129 19.0823V20.8067C34.1021 21.6036 34.1752 21.8927 33.2558 21.9557V22.1974C33.7426 22.1834 34.224 22.1597 34.709 22.1475C35.1587 22.1597 35.6193 22.1834 36.0438 22.1974V21.9557C35.0603 21.897 35.1967 21.5327 35.1696 20.7366Z" fill="white"/>
<path d="M26.0795 20.7366V16.864L24.1143 17.2371V17.4779C24.3644 17.4639 24.8873 17.4402 24.9713 17.7432C25.0237 17.9263 25.0237 18.8546 25.0237 19.0823V20.8067C25.0075 21.6036 25.086 21.8927 24.1666 21.9557V22.1974C24.6471 22.1834 25.1339 22.1597 25.6198 22.1475C26.0695 22.1597 26.5292 22.1834 26.9528 22.1974V21.9557C25.9702 21.8935 26.1057 21.5301 26.0795 20.7366Z" fill="white"/>
<path d="M30.372 17.2624C29.6026 16.9471 28.7202 16.6213 28.7202 15.6667C28.7202 14.8838 29.3786 14.3891 30.1725 14.3891C31.3808 14.3891 31.9643 15.2937 32.2488 16.2956H32.5342L32.4782 14.2086H32.3382L32.0501 14.678C31.491 14.2927 30.8588 14.0632 30.1734 14.0632C28.8196 14.0632 27.7114 14.8593 27.7114 16.2343C27.7114 17.6101 28.9144 18.189 30.0478 18.612C30.9564 18.9605 31.9408 19.3967 31.9408 20.4931C31.9408 21.4696 31.1307 22.002 30.1625 22.002C28.7301 22.002 28.0555 20.9756 27.8108 19.7584H27.5236V22.1115H27.659L27.9571 21.6045C28.6317 22.087 29.2919 22.3287 30.1372 22.3287C31.5895 22.3287 33.1113 21.5686 33.1113 19.9869C33.1104 18.4087 31.668 17.7791 30.372 17.2624Z" fill="white"/>
</g>
</g>
</g>
<defs>
<clipPath id="clip0_182_6652">
<rect width="56" height="32" fill="white"/>
</clipPath>
</defs>
</svg>
