<svg width="56" height="32" viewBox="0 0 56 32" fill="none" xmlns="http://www.w3.org/2000/svg">
<g clip-path="url(#clip0_182_5581)">
<path d="M50 0.915527H6C2.68629 0.915527 0 3.52042 0 6.73371V26.1276C0 29.3409 2.68629 31.9458 6 31.9458H50C53.3137 31.9458 56 29.3409 56 26.1276V6.73371C56 3.52042 53.3137 0.915527 50 0.915527Z" fill="#111827"/>
<mask id="mask0_182_5581" style="mask-type:luminance" maskUnits="userSpaceOnUse" x="0" y="0" width="56" height="32">
<path d="M56 0.915527H0V31.9458H56V0.915527Z" fill="white"/>
</mask>
<g mask="url(#mask0_182_5581)">
<mask id="mask1_182_5581" style="mask-type:luminance" maskUnits="userSpaceOnUse" x="5" y="-6" width="46" height="45">
<path d="M50.4 -5.29053H5.59998V38.1519H50.4V-5.29053Z" fill="white"/>
</mask>
<g mask="url(#mask1_182_5581)">
<path d="M23.5382 9.96631L21.2614 22.9225H24.9027L27.1814 9.96631H23.5382Z" fill="white"/>
<path d="M18.2081 9.98074L14.6417 18.8165L14.2614 17.4824C13.5581 15.8749 11.5613 13.5663 9.21704 12.1114L12.4782 22.9161L16.3312 22.9097L22.0659 9.97803L18.2081 9.98074Z" fill="white"/>
<path d="M12.879 10.9081C12.6674 10.1188 12.0539 9.88369 11.2925 9.85547H5.6468L5.59998 10.1134C9.99344 11.1469 12.9006 13.6372 14.1069 16.6315L12.879 10.9081Z" fill="white"/>
<path d="M34.5616 12.4501C35.7529 12.4318 36.6164 12.6844 37.287 12.9459L37.6157 13.0958L38.1084 10.2877C37.3872 10.0252 36.2568 9.74365 34.8463 9.74365C31.248 9.74365 28.7118 11.501 28.6921 14.0194C28.6687 15.8803 30.4987 16.9193 31.8811 17.5395C33.3 18.1753 33.7758 18.5794 33.7692 19.1471C33.758 20.0144 32.6379 20.4122 31.5917 20.4122C30.1335 20.4122 29.3589 20.2169 28.1629 19.7338L27.6937 19.5267L27.1814 22.4265C28.0337 22.7889 29.6062 23.1005 31.2386 23.1167C35.0664 23.1167 37.5539 21.3803 37.5802 18.6893C37.5961 17.2171 36.6249 16.0937 34.5204 15.1719C33.2466 14.5707 32.4674 14.1711 32.4749 13.5645C32.4749 13.0259 33.1361 12.4501 34.5616 12.4501Z" fill="white"/>
<path d="M47.4535 9.98096H44.6401C43.7662 9.98096 43.1163 10.2116 42.7323 11.0563L37.3254 22.93H41.1495C41.1495 22.93 41.7732 21.3334 41.9146 20.9837C42.3333 20.9837 46.0487 20.9892 46.5778 20.9892C46.6865 21.4414 47.0218 22.93 47.0218 22.93H50.4L47.4535 9.98096ZM42.9627 18.3318C43.2624 17.588 44.4134 14.7108 44.4134 14.7108C44.3938 14.7462 44.7103 13.9616 44.8986 13.4739L45.1439 14.591C45.1439 14.591 45.8417 17.6842 45.9878 18.3318H42.9627Z" fill="white"/>
</g>
</g>
</g>
<defs>
<clipPath id="clip0_182_5581">
<rect width="56" height="32" fill="white"/>
</clipPath>
</defs>
</svg>
