<svg width="20" height="20" viewBox="0 0 20 20" fill="none" xmlns="http://www.w3.org/2000/svg">
<g clip-path="url(#clip0_22_1414)">
<path d="M19.9265 9.92647C19.9265 15.3971 15.4853 19.8529 9.99999 19.8529C4.5147 19.8529 0.0735266 15.3971 0.0735266 9.92647C0.0735266 4.44118 4.5147 0 9.99999 0C15.4853 0 19.9265 4.44118 19.9265 9.92647Z" fill="#DA0000"/>
<path fill-rule="evenodd" clip-rule="evenodd" d="M16.6176 9.92657C16.6176 11.3579 16.5246 12.4168 16.3382 13.103C16.1912 13.6766 15.7353 14.1177 15.1765 14.2795C14.4804 14.4658 12.7549 14.5589 10 14.5589C7.2451 14.5589 5.5196 14.4658 4.82353 14.2795C4.26471 14.1177 3.80882 13.6766 3.66177 13.103C3.4755 12.4168 3.38235 11.3579 3.38235 9.92657C3.38235 8.4854 3.4755 7.42168 3.66177 6.7354C3.80882 6.16187 4.26471 5.72069 4.82353 5.55893C5.5196 5.38246 7.2451 5.29422 10 5.29422C12.7549 5.29422 14.4804 5.38246 15.1765 5.55893C15.7353 5.72069 16.1912 6.16187 16.3382 6.7354C16.5246 7.42168 16.6176 8.4854 16.6176 9.92657ZM12.1176 9.92657L8.67647 7.94128V11.9119L12.1176 9.92657Z" fill="white"/>
</g>
<defs>
<clipPath id="clip0_22_1414">
<rect width="19.987" height="19.84" fill="white" transform="scale(1.00065)"/>
</clipPath>
</defs>
</svg>
